<svg xmlns="http://www.w3.org/2000/svg" xmlns:xlink="http://www.w3.org/1999/xlink" width="500" zoomAndPan="magnify" viewBox="0 0 375 374.999991" height="500" preserveAspectRatio="xMidYMid meet" version="1.0"><rect x="-37.5" width="450" fill="#ffffff" y="-37.499999" height="449.999989" fill-opacity="1"/><rect x="-37.5" width="450" fill="#181818" y="-37.499999" height="449.999989" fill-opacity="1"/><path stroke-linecap="round" transform="matrix(18.500003, 0, 0, 18.500003, -34.568478, -28.581116)" fill="none" stroke-linejoin="round" d="M 14.499898 9.50016 L 9.499899 9.50016 M 3.028405 10.00016 L 10.224561 14.816671 C 10.866031 15.244458 11.186977 15.458141 11.533683 15.541333 C 11.839848 15.614602 12.159316 15.614602 12.465693 15.541333 C 12.812399 15.458141 13.133134 15.244458 13.774603 14.816671 L 20.97097 10.00016 M 10.298041 4.068995 L 4.498211 7.711309 C 3.951125 8.054848 3.677687 8.226512 3.479419 8.458775 C 3.303954 8.664223 3.171775 8.903243 3.091117 9.161055 C 2.9999 9.452652 2.9999 9.775498 2.9999 10.421402 L 2.9999 16.800201 C 2.9999 17.920133 2.9999 18.480311 3.218017 18.908098 C 3.40974 19.284365 3.715694 19.590319 4.091961 19.782042 C 4.519748 20.000158 5.079925 20.000158 6.200069 20.000158 L 17.79994 20.000158 C 18.920084 20.000158 19.480261 20.000158 19.908048 19.782042 C 20.284315 19.590319 20.590269 19.284365 20.781992 18.908098 C 20.999897 18.480311 20.999897 17.920133 20.999897 16.800201 L 20.999897 10.421402 C 20.999897 9.775498 20.999897 9.452652 20.908892 9.161055 C 20.828234 8.903243 20.696266 8.664223 20.52059 8.458775 C 20.322322 8.226512 20.048884 8.054848 19.501798 7.711309 L 13.701968 4.068995 C 13.084569 3.681327 12.776081 3.487492 12.445 3.411901 C 12.151926 3.345178 11.848083 3.345178 11.555009 3.411901 C 11.223928 3.487492 10.91544 3.681327 10.298041 4.068995 Z M 10.298041 4.068995 " stroke="#f3cc8e" stroke-width="2" stroke-opacity="1" stroke-miterlimit="4"/></svg>