<svg xmlns="http://www.w3.org/2000/svg" xmlns:xlink="http://www.w3.org/1999/xlink" width="500" zoomAndPan="magnify" viewBox="0 0 375 374.999991" height="500" preserveAspectRatio="xMidYMid meet" version="1.0"><rect x="-37.5" width="450" fill="#ffffff" y="-37.499999" height="449.999989" fill-opacity="1"/><rect x="-37.5" width="450" fill="#212121" y="-37.499999" height="449.999989" fill-opacity="1"/><path stroke-linecap="round" transform="matrix(18.406248, 0, 0, 18.406249, -33.138234, -27.182708)" fill="none" stroke-linejoin="round" d="M 14.500084 9.500164 L 9.500084 9.500164 M 3.028309 10.000164 L 10.224617 14.816803 C 10.86617 15.244435 11.186841 15.458144 11.533615 15.541336 C 11.839855 15.614766 12.159252 15.614766 12.465704 15.541336 C 12.812478 15.458144 13.133149 15.244435 13.774702 14.816803 L 20.97101 10.000164 M 10.298046 4.068925 L 4.498173 7.711327 C 3.951271 8.054918 3.677714 8.226607 3.479497 8.458781 C 3.303775 8.664214 3.171772 8.903178 3.091127 9.16103 C 3.000083 9.452626 3.000083 9.775419 3.000083 10.421217 L 3.000083 16.800037 C 3.000083 17.920156 3.000083 18.480216 3.218037 18.908059 C 3.409675 19.284333 3.715703 19.59036 4.091976 19.781998 C 4.51982 20.000165 5.079879 20.000165 6.199998 20.000165 L 17.799957 20.000165 C 18.920076 20.000165 19.480136 20.000165 19.90798 19.781998 C 20.284253 19.59036 20.59028 19.284333 20.781919 18.908059 C 21.000085 18.480216 21.000085 17.920156 21.000085 16.800037 L 21.000085 10.421217 C 21.000085 9.775419 21.000085 9.452626 20.908829 9.16103 C 20.828184 8.903178 20.69618 8.664214 20.520671 8.458781 C 20.322241 8.226607 20.048897 8.054918 19.501995 7.711327 L 13.701909 4.068925 C 13.084549 3.681191 12.775975 3.487431 12.444906 3.411879 C 12.152036 3.345028 11.847919 3.345028 11.55505 3.411879 C 11.22398 3.487431 10.915406 3.681191 10.298046 4.068925 Z M 10.298046 4.068925 " stroke="#f3cc8e" stroke-width="2" stroke-opacity="1" stroke-miterlimit="4"/></svg>