<svg xmlns="http://www.w3.org/2000/svg" xmlns:xlink="http://www.w3.org/1999/xlink" width="500" zoomAndPan="magnify" viewBox="0 0 375 374.999991" height="500" preserveAspectRatio="xMidYMid meet" version="1.0"><defs><clipPath id="b2c2f991cd"><path d="M 5.714844 5.714844 L 369.464844 5.714844 L 369.464844 368 L 5.714844 368 Z M 5.714844 5.714844 " clip-rule="nonzero"/></clipPath><clipPath id="daf901fd23"><path d="M 106 73 L 272 73 L 272 369.464844 L 106 369.464844 Z M 106 73 " clip-rule="nonzero"/></clipPath></defs><rect x="-37.5" width="450" fill="#ffffff" y="-37.499999" height="449.999989" fill-opacity="1"/><rect x="-37.5" width="450" fill="#212121" y="-37.499999" height="449.999989" fill-opacity="1"/><g clip-path="url(#b2c2f991cd)"><path fill="#f3cc8e" d="M 369.328125 187.53125 C 369.328125 87.109375 287.933594 5.714844 187.53125 5.714844 C 87.125 5.714844 5.714844 87.109375 5.714844 187.53125 C 5.714844 272.789062 64.410156 344.34375 143.601562 363.992188 L 143.601562 243.09375 L 106.105469 243.09375 L 106.105469 187.53125 L 143.601562 187.53125 L 143.601562 163.589844 C 143.601562 101.714844 171.605469 73.027344 232.355469 73.027344 C 243.875 73.027344 263.75 75.28125 271.878906 77.546875 L 271.878906 127.90625 C 267.585938 127.449219 260.128906 127.21875 250.875 127.21875 C 221.0625 127.21875 209.542969 138.511719 209.542969 167.867188 L 209.542969 187.515625 L 268.921875 187.515625 L 258.726562 243.074219 L 209.542969 243.074219 L 209.542969 367.988281 C 299.570312 357.121094 369.328125 280.460938 369.328125 187.515625 Z M 369.328125 187.53125 " fill-opacity="1" fill-rule="nonzero"/></g><g clip-path="url(#daf901fd23)"><path fill="#212121" d="M 258.742188 243.074219 L 268.941406 187.515625 L 209.558594 187.515625 L 209.558594 167.867188 C 209.558594 138.511719 221.078125 127.21875 250.890625 127.21875 C 260.144531 127.21875 267.601562 127.449219 271.894531 127.90625 L 271.894531 77.546875 C 263.765625 75.296875 243.890625 73.027344 232.371094 73.027344 C 171.621094 73.027344 143.617188 101.714844 143.617188 163.589844 L 143.617188 187.53125 L 106.121094 187.53125 L 106.121094 243.09375 L 143.617188 243.09375 L 143.617188 363.992188 C 157.683594 367.484375 172.386719 369.34375 187.546875 369.34375 C 195.003906 369.34375 202.347656 368.886719 209.574219 368.003906 L 209.574219 243.09375 L 258.757812 243.09375 Z M 258.742188 243.074219 " fill-opacity="1" fill-rule="nonzero"/></g></svg>