<svg xmlns="http://www.w3.org/2000/svg" xmlns:xlink="http://www.w3.org/1999/xlink" width="500" zoomAndPan="magnify" viewBox="0 0 375 374.999991" height="500" preserveAspectRatio="xMidYMid meet" version="1.0"><defs><clipPath id="baa672a08c"><path d="M 7.5 7.5 L 367.5 7.5 L 367.5 367 L 7.5 367 Z M 7.5 7.5 " clip-rule="nonzero"/></clipPath><clipPath id="9337ba9e2d"><path d="M 106 74 L 272 74 L 272 367.5 L 106 367.5 Z M 106 74 " clip-rule="nonzero"/></clipPath></defs><rect x="-37.5" width="450" fill="#ffffff" y="-37.499999" height="449.999989" fill-opacity="1"/><rect x="-37.5" width="450" fill="#181818" y="-37.499999" height="449.999989" fill-opacity="1"/><g clip-path="url(#baa672a08c)"><path fill="#f3cc8e" d="M 367.546875 187.53125 C 367.546875 88.097656 286.953125 7.5 187.53125 7.5 C 88.113281 7.5 7.5 88.097656 7.5 187.53125 C 7.5 271.957031 65.621094 342.808594 144.035156 362.265625 L 144.035156 242.550781 L 106.902344 242.550781 L 106.902344 187.53125 L 144.035156 187.53125 L 144.035156 163.828125 C 144.035156 102.558594 171.761719 74.152344 231.917969 74.152344 C 243.324219 74.152344 263.007812 76.382812 271.054688 78.628906 L 271.054688 128.492188 C 266.804688 128.039062 259.417969 127.8125 250.257812 127.8125 C 220.738281 127.8125 209.328125 138.992188 209.328125 168.0625 L 209.328125 187.515625 L 268.128906 187.515625 L 258.03125 242.535156 L 209.328125 242.535156 L 209.328125 366.222656 C 298.472656 355.460938 367.546875 279.550781 367.546875 187.515625 Z M 367.546875 187.53125 " fill-opacity="1" fill-rule="nonzero"/></g><g clip-path="url(#9337ba9e2d)"><path fill="#181818" d="M 258.046875 242.535156 L 268.144531 187.515625 L 209.34375 187.515625 L 209.34375 168.0625 C 209.34375 138.992188 220.753906 127.8125 250.273438 127.8125 C 259.433594 127.8125 266.820312 128.039062 271.070312 128.492188 L 271.070312 78.628906 C 263.023438 76.398438 243.34375 74.152344 231.933594 74.152344 C 171.777344 74.152344 144.050781 102.558594 144.050781 163.828125 L 144.050781 187.53125 L 106.921875 187.53125 L 106.921875 242.550781 L 144.050781 242.550781 L 144.050781 362.265625 C 157.980469 365.722656 172.539062 367.566406 187.546875 367.566406 C 194.933594 367.566406 202.203125 367.113281 209.363281 366.238281 L 209.363281 242.550781 L 258.0625 242.550781 Z M 258.046875 242.535156 " fill-opacity="1" fill-rule="nonzero"/></g></svg>