<svg xmlns="http://www.w3.org/2000/svg" xmlns:xlink="http://www.w3.org/1999/xlink" width="500" zoomAndPan="magnify" viewBox="0 0 375 374.999991" height="500" preserveAspectRatio="xMidYMid meet" version="1.0"><rect x="-37.5" width="450" fill="#ffffff" y="-37.499999" height="449.999989" fill-opacity="1"/><rect x="-37.5" width="450" fill="#212121" y="-37.499999" height="449.999989" fill-opacity="1"/><path fill="#f3cc8e" d="M 187.730469 284.980469 C 241.578125 284.980469 285.230469 241.328125 285.230469 187.480469 C 285.230469 133.632812 241.578125 89.984375 187.730469 89.984375 C 133.882812 89.984375 90.230469 133.632812 90.230469 187.480469 C 90.230469 241.328125 133.882812 284.980469 187.730469 284.980469 Z M 187.730469 252.480469 C 223.628906 252.480469 252.730469 223.378906 252.730469 187.480469 C 252.730469 151.582031 223.628906 122.480469 187.730469 122.480469 C 151.832031 122.480469 122.730469 151.582031 122.730469 187.480469 C 122.730469 223.378906 151.832031 252.480469 187.730469 252.480469 Z M 187.730469 252.480469 " fill-opacity="1" fill-rule="evenodd"/><path fill="#f3cc8e" d="M 285.230469 73.734375 C 276.253906 73.734375 268.980469 81.007812 268.980469 89.984375 C 268.980469 98.957031 276.253906 106.234375 285.230469 106.234375 C 294.203125 106.234375 301.480469 98.957031 301.480469 89.984375 C 301.480469 81.007812 294.203125 73.734375 285.230469 73.734375 Z M 285.230469 73.734375 " fill-opacity="1" fill-rule="nonzero"/><path fill="#f3cc8e" d="M 19.605469 61.96875 C 8.980469 82.824219 8.980469 110.128906 8.980469 164.734375 L 8.980469 210.230469 C 8.980469 264.835938 8.980469 292.140625 19.605469 312.996094 C 28.953125 331.34375 43.871094 346.257812 62.214844 355.605469 C 83.070312 366.230469 110.375 366.230469 164.980469 366.230469 L 210.480469 366.230469 C 265.085938 366.230469 292.386719 366.230469 313.242188 355.605469 C 331.589844 346.257812 346.503906 331.34375 355.851562 312.996094 C 366.480469 292.140625 366.480469 264.835938 366.480469 210.230469 L 366.480469 164.734375 C 366.480469 110.128906 366.480469 82.824219 355.851562 61.96875 C 346.503906 43.621094 331.589844 28.707031 313.242188 19.359375 C 292.386719 8.734375 265.085938 8.734375 210.480469 8.734375 L 164.980469 8.734375 C 110.375 8.734375 83.070312 8.734375 62.214844 19.359375 C 43.871094 28.707031 28.953125 43.621094 19.605469 61.96875 Z M 210.480469 41.234375 L 164.980469 41.234375 C 137.140625 41.234375 118.214844 41.257812 103.589844 42.453125 C 89.339844 43.617188 82.054688 45.726562 76.96875 48.316406 C 64.738281 54.546875 54.796875 64.492188 48.5625 76.722656 C 45.972656 81.804688 43.863281 89.09375 42.699219 103.339844 C 41.503906 117.96875 41.480469 136.894531 41.480469 164.734375 L 41.480469 210.230469 C 41.480469 238.070312 41.503906 256.996094 42.699219 271.625 C 43.863281 285.871094 45.972656 293.160156 48.5625 298.242188 C 54.796875 310.472656 64.738281 320.414062 76.96875 326.648438 C 82.054688 329.238281 89.339844 331.347656 103.589844 332.511719 C 118.214844 333.707031 137.140625 333.730469 164.980469 333.730469 L 210.480469 333.730469 C 238.320312 333.730469 257.242188 333.707031 271.871094 332.511719 C 286.121094 331.347656 293.40625 329.238281 298.488281 326.648438 C 310.71875 320.414062 320.664062 310.472656 326.894531 298.242188 C 329.484375 293.160156 331.59375 285.871094 332.757812 271.625 C 333.953125 256.996094 333.980469 238.070312 333.980469 210.230469 L 333.980469 164.734375 C 333.980469 136.894531 333.953125 117.96875 332.757812 103.339844 C 331.59375 89.09375 329.484375 81.804688 326.894531 76.722656 C 320.664062 64.492188 310.71875 54.546875 298.488281 48.316406 C 293.40625 45.726562 286.121094 43.617188 271.871094 42.453125 C 257.242188 41.257812 238.320312 41.234375 210.480469 41.234375 Z M 210.480469 41.234375 " fill-opacity="1" fill-rule="evenodd"/></svg>