<svg xmlns="http://www.w3.org/2000/svg" xmlns:xlink="http://www.w3.org/1999/xlink" width="500" zoomAndPan="magnify" viewBox="0 0 375 374.999991" height="500" preserveAspectRatio="xMidYMid meet" version="1.0"><defs><clipPath id="34281dccaf"><path d="M 7.5 7.5 L 367.5 7.5 L 367.5 367.5 L 7.5 367.5 Z M 7.5 7.5 " clip-rule="nonzero"/></clipPath></defs><rect x="-37.5" width="450" fill="#ffffff" y="-37.499999" height="449.999989" fill-opacity="1"/><rect x="-37.5" width="450" fill="#181818" y="-37.499999" height="449.999989" fill-opacity="1"/><g clip-path="url(#34281dccaf)"><path fill="#f3cc8e" d="M 112.90625 8.738281 C 93.761719 9.636719 80.6875 12.707031 69.257812 17.183594 C 57.421875 21.792969 47.398438 27.96875 37.429688 37.988281 C 27.441406 48.011719 21.304688 58.050781 16.742188 69.902344 C 12.316406 81.367188 9.3125 94.4375 8.464844 113.601562 C 7.617188 132.78125 7.433594 138.902344 7.515625 187.769531 C 7.601562 236.625 7.820312 242.761719 8.738281 261.957031 C 9.652344 281.101562 12.707031 294.160156 17.183594 305.605469 C 21.792969 317.441406 27.96875 327.445312 37.988281 337.433594 C 48.011719 347.421875 58.050781 353.542969 69.902344 358.121094 C 81.347656 362.546875 94.4375 365.566406 113.582031 366.398438 C 132.78125 367.246094 138.902344 367.433594 187.753906 367.332031 C 236.625 367.246094 242.746094 367.023438 261.941406 366.109375 C 281.085938 365.195312 294.144531 362.125 305.589844 357.664062 C 317.425781 353.035156 327.445312 346.878906 337.417969 336.859375 C 347.390625 326.835938 353.527344 316.796875 358.105469 304.945312 C 362.53125 293.5 365.550781 280.40625 366.378906 261.28125 C 367.210938 242.085938 367.414062 235.945312 367.332031 187.09375 C 367.246094 138.238281 367.007812 132.117188 366.109375 112.921875 C 365.195312 93.761719 362.140625 80.703125 357.664062 69.257812 C 353.035156 57.421875 346.878906 47.417969 336.859375 37.429688 C 326.835938 27.457031 316.796875 21.304688 304.945312 16.742188 C 293.5 12.316406 280.40625 9.296875 261.261719 8.464844 C 242.066406 7.617188 235.929688 7.433594 187.074219 7.515625 C 138.222656 7.601562 132.101562 7.820312 112.90625 8.738281 M 115.007812 333.992188 C 97.472656 333.230469 87.945312 330.3125 81.585938 327.871094 C 73.175781 324.617188 67.1875 320.714844 60.863281 314.457031 C 54.554688 308.167969 50.65625 302.179688 47.367188 293.804688 C 44.90625 287.460938 41.941406 277.949219 41.109375 260.398438 C 40.210938 241.441406 40.007812 235.742188 39.921875 187.703125 C 39.835938 139.679688 40.007812 133.984375 40.835938 115.007812 C 41.582031 97.472656 44.515625 87.945312 46.960938 81.601562 C 50.214844 73.191406 54.097656 67.207031 60.371094 60.882812 C 66.664062 54.574219 72.648438 50.671875 81.042969 47.382812 C 87.386719 44.90625 96.898438 41.957031 114.433594 41.125 C 133.40625 40.226562 139.085938 40.039062 187.128906 39.9375 C 235.167969 39.835938 240.863281 40.007812 259.839844 40.855469 C 277.371094 41.617188 286.902344 44.515625 293.246094 46.976562 C 301.65625 50.230469 307.660156 54.097656 313.964844 60.390625 C 320.273438 66.679688 324.191406 72.648438 327.464844 81.058594 C 329.941406 87.386719 332.890625 96.914062 333.722656 114.433594 C 334.621094 133.40625 334.824219 139.105469 334.910156 187.125 C 334.992188 235.167969 334.824219 240.863281 333.992188 259.820312 C 333.230469 277.355469 330.3125 286.902344 327.871094 293.246094 C 324.617188 301.636719 320.730469 307.640625 314.441406 313.949219 C 308.148438 320.242188 302.179688 324.15625 293.769531 327.449219 C 287.445312 329.921875 277.914062 332.875 260.398438 333.703125 C 241.421875 334.601562 235.742188 334.808594 187.6875 334.890625 C 139.664062 334.976562 133.964844 334.808594 114.992188 333.976562 M 261.6875 91.25 C 261.703125 103.171875 271.402344 112.820312 283.308594 112.785156 C 295.230469 112.769531 304.878906 103.085938 304.859375 91.167969 C 304.84375 79.246094 295.144531 69.597656 283.222656 69.613281 C 271.300781 69.632812 261.652344 79.332031 261.671875 91.234375 M 95.03125 187.601562 C 95.132812 238.625 136.578125 279.898438 187.585938 279.796875 C 238.609375 279.695312 279.898438 238.269531 279.796875 187.246094 C 279.695312 136.238281 238.253906 94.949219 187.230469 95.03125 C 136.222656 95.132812 94.929688 136.578125 95.03125 187.601562 M 127.4375 187.535156 C 127.386719 154.417969 154.179688 127.503906 187.296875 127.453125 C 220.414062 127.386719 247.324219 154.179688 247.394531 187.3125 C 247.460938 220.429688 220.652344 247.339844 187.535156 247.394531 C 154.417969 247.460938 127.503906 220.652344 127.453125 187.535156 " fill-opacity="1" fill-rule="nonzero"/></g></svg>