<svg xmlns="http://www.w3.org/2000/svg" xmlns:xlink="http://www.w3.org/1999/xlink" width="500" zoomAndPan="magnify" viewBox="0 0 375 374.999991" height="500" preserveAspectRatio="xMidYMid meet" version="1.0"><defs><clipPath id="167ca3904a"><path d="M 8.164062 7.5 L 366.664062 7.5 L 366.664062 367 L 8.164062 367 Z M 8.164062 7.5 " clip-rule="nonzero"/></clipPath></defs><rect x="-37.5" width="450" fill="#ffffff" y="-37.499999" height="449.999989" fill-opacity="1"/><rect x="-37.5" width="450" fill="#212121" y="-37.499999" height="449.999989" fill-opacity="1"/><g clip-path="url(#167ca3904a)"><path fill="#f3cc8e" d="M 314.132812 313.835938 L 260.917969 313.835938 L 260.917969 230.511719 C 260.917969 210.640625 260.5625 185.066406 233.242188 185.066406 C 205.925781 185.066406 201.285156 206.714844 201.285156 229.074219 L 201.285156 313.835938 L 148.070312 313.835938 L 148.070312 142.480469 L 199.152344 142.480469 L 199.152344 165.90625 L 199.863281 165.90625 C 210.273438 148.097656 229.65625 137.453125 250.269531 138.230469 C 304.195312 138.230469 314.148438 173.707031 314.148438 219.847656 L 314.148438 313.855469 Z M 88.050781 119.054688 C 70.992188 119.054688 57.179688 105.242188 57.164062 88.179688 C 57.144531 71.121094 70.972656 57.308594 88.035156 57.292969 C 105.097656 57.292969 118.910156 71.101562 118.925781 88.164062 C 118.941406 105.226562 105.113281 119.039062 88.050781 119.054688 M 114.660156 313.835938 L 61.394531 313.835938 L 61.394531 142.480469 L 114.660156 142.480469 Z M 340.65625 7.886719 L 34.667969 7.886719 C 20.195312 7.734375 8.332031 19.308594 8.164062 33.78125 L 8.164062 341.054688 C 8.332031 355.527344 20.195312 367.121094 34.667969 366.96875 L 340.671875 366.96875 C 355.175781 367.152344 367.074219 355.558594 367.277344 341.054688 L 367.277344 33.746094 C 367.058594 19.257812 355.160156 7.683594 340.65625 7.867188 " fill-opacity="1" fill-rule="nonzero"/></g></svg>