<svg xmlns="http://www.w3.org/2000/svg" xmlns:xlink="http://www.w3.org/1999/xlink" width="500" zoomAndPan="magnify" viewBox="0 0 375 374.999991" height="500" preserveAspectRatio="xMidYMid meet" version="1.0"><defs><clipPath id="88a9f7cf88"><path d="M 21.753906 7.535156 L 337.503906 7.535156 L 337.503906 367.535156 L 21.753906 367.535156 Z M 21.753906 7.535156 " clip-rule="nonzero"/></clipPath><clipPath id="984c550768"><path d="M 72 107 L 337.503906 107 L 337.503906 367.535156 L 72 367.535156 Z M 72 107 " clip-rule="nonzero"/></clipPath></defs><rect x="-37.5" width="450" fill="#ffffff" y="-37.499999" height="449.999989" fill-opacity="1"/><rect x="-37.5" width="450" fill="#212121" y="-37.499999" height="449.999989" fill-opacity="1"/><g clip-path="url(#88a9f7cf88)"><path fill="#212121" d="M 462.191406 194.53125 C 462.191406 199.011719 462.082031 203.488281 461.863281 207.960938 C 461.640625 212.4375 461.3125 216.902344 460.875 221.359375 C 460.433594 225.820312 459.886719 230.265625 459.230469 234.695312 C 458.570312 239.125 457.804688 243.539062 456.933594 247.933594 C 456.058594 252.324219 455.078125 256.695312 453.988281 261.039062 C 452.902344 265.386719 451.707031 269.703125 450.40625 273.988281 C 449.105469 278.277344 447.699219 282.527344 446.191406 286.746094 C 444.683594 290.964844 443.070312 295.140625 441.355469 299.28125 C 439.640625 303.417969 437.828125 307.511719 435.910156 311.5625 C 433.996094 315.613281 431.984375 319.613281 429.871094 323.5625 C 427.757812 327.515625 425.550781 331.410156 423.25 335.253906 C 420.945312 339.09375 418.550781 342.878906 416.0625 346.605469 C 413.574219 350.328125 410.992188 353.988281 408.324219 357.585938 C 405.65625 361.1875 402.902344 364.714844 400.058594 368.179688 C 397.21875 371.640625 394.292969 375.03125 391.285156 378.351562 C 388.277344 381.671875 385.1875 384.914062 382.019531 388.082031 C 378.851562 391.25 375.609375 394.339844 372.289062 397.347656 C 368.972656 400.355469 365.578125 403.28125 362.117188 406.121094 C 358.65625 408.964844 355.125 411.71875 351.527344 414.386719 C 347.925781 417.054688 344.265625 419.632812 340.542969 422.125 C 336.816406 424.613281 333.035156 427.007812 329.191406 429.3125 C 325.347656 431.613281 321.453125 433.820312 317.5 435.933594 C 313.550781 438.042969 309.550781 440.058594 305.5 441.972656 C 301.453125 443.890625 297.355469 445.703125 293.21875 447.417969 C 289.078125 449.132812 284.902344 450.742188 280.683594 452.253906 C 276.464844 453.761719 272.214844 455.167969 267.925781 456.46875 C 263.640625 457.769531 259.324219 458.960938 254.980469 460.050781 C 250.632812 461.140625 246.265625 462.121094 241.871094 462.996094 C 237.476562 463.867188 233.0625 464.632812 228.632812 465.292969 C 224.203125 465.949219 219.757812 466.496094 215.300781 466.9375 C 210.839844 467.375 206.375 467.703125 201.902344 467.925781 C 197.425781 468.144531 192.949219 468.253906 188.46875 468.253906 C 183.988281 468.253906 179.511719 468.144531 175.039062 467.925781 C 170.5625 467.703125 166.097656 467.375 161.640625 466.9375 C 157.183594 466.496094 152.738281 465.949219 148.304688 465.292969 C 143.875 464.632812 139.460938 463.867188 135.070312 462.996094 C 130.675781 462.121094 126.304688 461.140625 121.960938 460.050781 C 117.613281 458.960938 113.300781 457.769531 109.011719 456.46875 C 104.726562 455.167969 100.472656 453.761719 96.253906 452.253906 C 92.039062 450.742188 87.859375 449.132812 83.71875 447.417969 C 79.582031 445.703125 75.488281 443.890625 71.4375 441.972656 C 67.386719 440.058594 63.386719 438.042969 59.4375 435.933594 C 55.488281 433.820312 51.589844 431.613281 47.75 429.3125 C 43.90625 427.007812 40.121094 424.613281 36.398438 422.125 C 32.671875 419.632812 29.011719 417.054688 25.414062 414.386719 C 21.816406 411.71875 18.285156 408.964844 14.820312 406.121094 C 11.359375 403.28125 7.96875 400.355469 4.648438 397.347656 C 1.328125 394.339844 -1.914062 391.25 -5.082031 388.082031 C -8.25 384.914062 -11.335938 381.671875 -14.34375 378.351562 C -17.355469 375.03125 -20.277344 371.640625 -23.121094 368.179688 C -25.960938 364.714844 -28.71875 361.1875 -31.386719 357.585938 C -34.054688 353.988281 -36.632812 350.328125 -39.121094 346.605469 C -41.609375 342.878906 -44.007812 339.09375 -46.308594 335.253906 C -48.613281 331.410156 -50.820312 327.515625 -52.933594 323.5625 C -55.042969 319.613281 -57.058594 315.613281 -58.972656 311.5625 C -60.886719 307.511719 -62.703125 303.417969 -64.417969 299.28125 C -66.132812 295.140625 -67.742188 290.964844 -69.253906 286.746094 C -70.761719 282.527344 -72.167969 278.277344 -73.464844 273.988281 C -74.765625 269.703125 -75.960938 265.386719 -77.050781 261.039062 C -78.136719 256.695312 -79.121094 252.324219 -79.992188 247.933594 C -80.867188 243.539062 -81.632812 239.125 -82.289062 234.695312 C -82.949219 230.265625 -83.496094 225.820312 -83.933594 221.359375 C -84.375 216.902344 -84.703125 212.4375 -84.921875 207.960938 C -85.144531 203.488281 -85.253906 199.011719 -85.253906 194.53125 C -85.253906 190.050781 -85.144531 185.574219 -84.921875 181.101562 C -84.703125 176.625 -84.375 172.160156 -83.933594 167.703125 C -83.496094 163.242188 -82.949219 158.800781 -82.289062 154.367188 C -81.632812 149.9375 -80.867188 145.523438 -79.992188 141.132812 C -79.121094 136.738281 -78.136719 132.367188 -77.050781 128.023438 C -75.960938 123.675781 -74.765625 119.359375 -73.464844 115.074219 C -72.167969 110.789062 -70.761719 106.535156 -69.253906 102.316406 C -67.742188 98.097656 -66.132812 93.921875 -64.417969 89.78125 C -62.703125 85.644531 -60.886719 81.550781 -58.972656 77.5 C -57.058594 73.449219 -55.042969 69.449219 -52.933594 65.5 C -50.820312 61.550781 -48.613281 57.652344 -46.308594 53.808594 C -44.007812 49.96875 -41.609375 46.183594 -39.121094 42.460938 C -36.632812 38.734375 -34.054688 35.074219 -31.386719 31.476562 C -28.71875 27.878906 -25.960938 24.347656 -23.121094 20.882812 C -20.277344 17.421875 -17.355469 14.03125 -14.34375 10.710938 C -11.335938 7.390625 -8.25 4.148438 -5.082031 0.980469 C -1.914062 -2.1875 1.328125 -5.273438 4.648438 -8.285156 C 7.96875 -11.292969 11.359375 -14.21875 14.820312 -17.058594 C 18.285156 -19.902344 21.816406 -22.65625 25.414062 -25.324219 C 29.011719 -27.992188 32.671875 -30.570312 36.398438 -33.058594 C 40.121094 -35.550781 43.90625 -37.945312 47.75 -40.246094 C 51.589844 -42.550781 55.488281 -44.757812 59.4375 -46.871094 C 63.386719 -48.980469 67.386719 -50.996094 71.4375 -52.910156 C 75.488281 -54.824219 79.582031 -56.640625 83.71875 -58.355469 C 87.859375 -60.070312 92.039062 -61.679688 96.253906 -63.191406 C 100.472656 -64.699219 104.726562 -66.105469 109.011719 -67.40625 C 113.300781 -68.703125 117.613281 -69.898438 121.960938 -70.988281 C 126.304688 -72.078125 130.675781 -73.058594 135.070312 -73.929688 C 139.460938 -74.804688 143.875 -75.570312 148.304688 -76.226562 C 152.738281 -76.886719 157.183594 -77.433594 161.640625 -77.871094 C 166.097656 -78.3125 170.5625 -78.640625 175.039062 -78.859375 C 179.511719 -79.082031 183.988281 -79.191406 188.46875 -79.191406 C 192.949219 -79.191406 197.425781 -79.082031 201.902344 -78.859375 C 206.375 -78.640625 210.839844 -78.3125 215.300781 -77.871094 C 219.757812 -77.433594 224.203125 -76.886719 228.632812 -76.226562 C 233.0625 -75.570312 237.476562 -74.804688 241.871094 -73.929688 C 246.265625 -73.058594 250.632812 -72.078125 254.980469 -70.988281 C 259.324219 -69.898438 263.640625 -68.703125 267.925781 -67.40625 C 272.214844 -66.105469 276.464844 -64.699219 280.683594 -63.191406 C 284.902344 -61.679688 289.078125 -60.070312 293.21875 -58.355469 C 297.355469 -56.640625 301.453125 -54.824219 305.5 -52.910156 C 309.550781 -50.996094 313.550781 -48.980469 317.5 -46.871094 C 321.453125 -44.757812 325.347656 -42.550781 329.191406 -40.246094 C 333.035156 -37.945312 336.816406 -35.550781 340.542969 -33.058594 C 344.265625 -30.570312 347.925781 -27.992188 351.527344 -25.324219 C 355.125 -22.65625 358.65625 -19.902344 362.117188 -17.058594 C 365.578125 -14.21875 368.972656 -11.292969 372.289062 -8.285156 C 375.609375 -5.273438 378.851562 -2.1875 382.019531 0.980469 C 385.1875 4.148438 388.277344 7.390625 391.285156 10.710938 C 394.292969 14.03125 397.21875 17.421875 400.058594 20.882812 C 402.902344 24.347656 405.65625 27.878906 408.324219 31.476562 C 410.992188 35.074219 413.574219 38.734375 416.0625 42.460938 C 418.550781 46.183594 420.945312 49.96875 423.25 53.808594 C 425.550781 57.652344 427.757812 61.550781 429.871094 65.5 C 431.984375 69.449219 433.996094 73.449219 435.910156 77.5 C 437.828125 81.550781 439.640625 85.644531 441.355469 89.78125 C 443.070312 93.921875 444.683594 98.097656 446.191406 102.316406 C 447.699219 106.535156 449.105469 110.789062 450.40625 115.074219 C 451.707031 119.359375 452.902344 123.675781 453.988281 128.023438 C 455.078125 132.367188 456.058594 136.738281 456.933594 141.132812 C 457.804688 145.523438 458.570312 149.9375 459.230469 154.367188 C 459.886719 158.800781 460.433594 163.242188 460.875 167.703125 C 461.3125 172.160156 461.640625 176.625 461.863281 181.101562 C 462.082031 185.574219 462.191406 190.050781 462.191406 194.53125 Z M 462.191406 194.53125 " fill-opacity="1" fill-rule="nonzero"/></g><path fill="#f3cc8e" d="M 152.132812 155.402344 L 152.132812 140.550781 C 147.152344 139.871094 142.097656 139.457031 136.941406 139.457031 C 74.796875 139.457031 24.242188 190.011719 24.242188 252.160156 C 24.242188 290.292969 43.296875 324.027344 72.363281 344.445312 C 53.601562 324.296875 42.46875 297.316406 42.46875 267.691406 C 42.46875 206.441406 91.226562 156.808594 152.132812 155.402344 Z M 152.132812 155.402344 " fill-opacity="1" fill-rule="nonzero"/><path fill="#f3cc8e" d="M 154.78125 319.484375 C 182.515625 319.484375 205.457031 297.097656 206.480469 269.632812 L 206.722656 24.566406 L 251.152344 24.566406 C 251.152344 24.566406 251.078125 24.226562 251.078125 24.226562 C 250.15625 19.195312 249.644531 13.996094 249.644531 8.695312 L 188.421875 8.695312 L 188.324219 254.101562 C 187.304688 281.59375 164.675781 303.636719 136.941406 303.636719 C 128.316406 303.636719 120.222656 301.472656 113.074219 297.730469 C 122.433594 310.683594 137.625 319.507812 154.808594 319.507812 Z M 154.78125 319.484375 " fill-opacity="1" fill-rule="nonzero"/><path fill="#f3cc8e" d="M 334.859375 108.226562 L 334.859375 93.835938 C 317.746094 93.835938 301.828125 88.757812 288.460938 80.03125 C 300.34375 93.691406 316.507812 104.289062 334.859375 108.199219 Z M 334.859375 108.226562 " fill-opacity="1" fill-rule="nonzero"/><path fill="#212121" d="M 288.460938 80.054688 C 275.433594 65.082031 267.507812 45.566406 267.507812 24.203125 L 250.835938 24.203125 C 255.164062 47.535156 269.285156 67.5625 288.460938 80.054688 Z M 288.460938 80.054688 " fill-opacity="1" fill-rule="nonzero"/><path fill="#212121" d="M 136.941406 200.195312 C 108.554688 200.195312 85.125 223.746094 85.125 252.132812 C 85.125 271.894531 96.667969 289.078125 113.050781 297.707031 C 106.949219 289.246094 103.304688 278.894531 103.304688 267.691406 C 103.304688 239.300781 126.394531 216.210938 154.78125 216.210938 C 160.082031 216.210938 165.160156 217.085938 169.972656 218.59375 L 169.972656 156.082031 C 164.992188 155.402344 159.9375 154.988281 154.78125 154.988281 C 153.882812 154.988281 153.007812 155.035156 152.132812 155.058594 L 151.890625 155.058594 C 151.890625 155.058594 151.71875 202.382812 151.71875 202.382812 C 146.90625 200.875 142.242188 200.21875 136.941406 200.21875 Z M 136.941406 200.195312 " fill-opacity="1" fill-rule="nonzero"/><g clip-path="url(#984c550768)"><path fill="#212121" d="M 334.859375 107.496094 L 334.566406 107.445312 L 334.566406 154.71875 C 302.800781 154.71875 273.292969 144.269531 249.28125 127.035156 L 249.28125 252.132812 C 249.28125 314.28125 199.089844 364.519531 136.941406 364.519531 C 112.929688 364.519531 90.667969 357.253906 72.339844 344.394531 C 92.925781 366.488281 122.261719 380.367188 154.78125 380.367188 C 216.929688 380.367188 267.484375 329.8125 267.484375 267.664062 L 267.484375 143.222656 C 291.5 160.457031 320.933594 170.617188 352.675781 170.617188 L 352.675781 109.390625 C 346.550781 109.390625 340.59375 108.734375 334.835938 107.496094 Z M 334.859375 107.496094 " fill-opacity="1" fill-rule="nonzero"/></g><path fill="#f3cc8e" d="M 249.644531 252.132812 L 249.644531 127.691406 C 273.660156 144.925781 303.089844 155.085938 334.835938 155.085938 L 334.835938 107.496094 C 316.484375 103.558594 300.34375 93.714844 288.4375 80.054688 C 269.257812 67.539062 255.40625 47.535156 251.078125 24.203125 L 206.238281 24.203125 L 206.140625 269.609375 C 205.117188 297.097656 182.492188 319.144531 154.757812 319.144531 C 137.574219 319.144531 122.382812 310.660156 113.027344 297.683594 C 96.644531 289.054688 85.441406 271.894531 85.441406 252.109375 C 85.441406 223.722656 108.53125 200.632812 136.917969 200.632812 C 142.21875 200.632812 147.296875 201.507812 152.109375 203.015625 L 152.109375 155.011719 C 91.175781 156.445312 42.054688 206.390625 42.054688 267.664062 C 42.054688 297.292969 53.578125 324.273438 72.316406 344.421875 C 90.617188 357.277344 112.882812 364.835938 136.917969 364.835938 C 199.066406 364.835938 249.621094 314.28125 249.621094 252.132812 Z M 249.644531 252.132812 " fill-opacity="1" fill-rule="nonzero"/></svg>