<svg xmlns="http://www.w3.org/2000/svg" xmlns:xlink="http://www.w3.org/1999/xlink" width="500" zoomAndPan="magnify" viewBox="0 0 375 374.999991" height="500" preserveAspectRatio="xMidYMid meet" version="1.0"><defs><clipPath id="28b0dc72ac"><path d="M 29.597656 7.5 L 345.347656 7.5 L 345.347656 367.5 L 29.597656 367.5 Z M 29.597656 7.5 " clip-rule="nonzero"/></clipPath><clipPath id="324f154955"><path d="M 80 107 L 345.347656 107 L 345.347656 367.5 L 80 367.5 Z M 80 107 " clip-rule="nonzero"/></clipPath></defs><rect x="-37.5" width="450" fill="#ffffff" y="-37.499999" height="449.999989" fill-opacity="1"/><rect x="-37.5" width="450" fill="#181818" y="-37.499999" height="449.999989" fill-opacity="1"/><g clip-path="url(#28b0dc72ac)"><path fill="#181818" d="M 470.117188 194.53125 C 470.117188 199.011719 470.007812 203.492188 469.789062 207.964844 C 469.570312 212.441406 469.238281 216.910156 468.800781 221.367188 C 468.363281 225.828125 467.8125 230.273438 467.15625 234.703125 C 466.5 239.136719 465.734375 243.550781 464.859375 247.945312 C 463.984375 252.339844 463.003906 256.707031 461.914062 261.054688 C 460.824219 265.402344 459.628906 269.71875 458.332031 274.003906 C 457.03125 278.292969 455.625 282.546875 454.113281 286.765625 C 452.605469 290.984375 450.992188 295.164062 449.277344 299.300781 C 447.5625 303.441406 445.75 307.535156 443.832031 311.585938 C 441.917969 315.636719 439.902344 319.636719 437.792969 323.589844 C 435.679688 327.542969 433.472656 331.4375 431.167969 335.28125 C 428.863281 339.125 426.46875 342.910156 423.980469 346.632812 C 421.488281 350.359375 418.910156 354.023438 416.242188 357.621094 C 413.574219 361.21875 410.816406 364.75 407.976562 368.214844 C 405.132812 371.675781 402.207031 375.070312 399.199219 378.390625 C 396.1875 381.707031 393.101562 384.953125 389.933594 388.121094 C 386.765625 391.289062 383.519531 394.378906 380.199219 397.386719 C 376.878906 400.394531 373.488281 403.320312 370.023438 406.164062 C 366.5625 409.007812 363.03125 411.761719 359.429688 414.429688 C 355.832031 417.101562 352.171875 419.679688 348.445312 422.167969 C 344.71875 424.65625 340.933594 427.054688 337.09375 429.359375 C 333.25 431.660156 329.351562 433.867188 325.398438 435.980469 C 321.449219 438.09375 317.449219 440.105469 313.398438 442.023438 C 309.347656 443.9375 305.253906 445.753906 301.113281 447.46875 C 296.972656 449.183594 292.792969 450.792969 288.574219 452.304688 C 284.355469 453.8125 280.105469 455.21875 275.816406 456.519531 C 271.527344 457.820312 267.210938 459.015625 262.867188 460.101562 C 258.519531 461.191406 254.148438 462.171875 249.753906 463.046875 C 245.359375 463.921875 240.945312 464.6875 236.515625 465.34375 C 232.082031 466.003906 227.636719 466.550781 223.179688 466.988281 C 218.71875 467.429688 214.253906 467.757812 209.777344 467.976562 C 205.300781 468.199219 200.824219 468.308594 196.34375 468.308594 C 191.863281 468.308594 187.386719 468.199219 182.910156 467.976562 C 178.433594 467.757812 173.96875 467.429688 169.507812 466.988281 C 165.050781 466.550781 160.605469 466.003906 156.171875 465.34375 C 151.742188 464.6875 147.328125 463.921875 142.933594 463.046875 C 138.539062 462.171875 134.167969 461.191406 129.820312 460.101562 C 125.476562 459.015625 121.160156 457.820312 116.871094 456.519531 C 112.582031 455.21875 108.332031 453.8125 104.113281 452.304688 C 99.894531 450.792969 95.714844 449.183594 91.574219 447.46875 C 87.433594 445.753906 83.339844 443.9375 79.289062 442.023438 C 75.238281 440.105469 71.238281 438.09375 67.285156 435.980469 C 63.335938 433.867188 59.4375 431.660156 55.59375 429.359375 C 51.753906 427.054688 47.96875 424.65625 44.242188 422.167969 C 40.515625 419.679688 36.855469 417.101562 33.257812 414.429688 C 29.65625 411.761719 26.125 409.007812 22.664062 406.164062 C 19.199219 403.320312 15.808594 400.394531 12.488281 397.386719 C 9.167969 394.378906 5.921875 391.289062 2.753906 388.121094 C -0.414062 384.953125 -3.5 381.707031 -6.511719 378.390625 C -9.519531 375.070312 -12.445312 371.675781 -15.289062 368.214844 C -18.128906 364.75 -20.886719 361.21875 -23.554688 357.621094 C -26.222656 354.023438 -28.804688 350.359375 -31.292969 346.632812 C -33.78125 342.910156 -36.175781 339.125 -38.480469 335.28125 C -40.785156 331.4375 -42.992188 327.542969 -45.105469 323.589844 C -47.214844 319.636719 -49.230469 315.636719 -51.144531 311.585938 C -53.0625 307.535156 -54.875 303.441406 -56.589844 299.300781 C -58.304688 295.164062 -59.917969 290.984375 -61.425781 286.765625 C -62.9375 282.546875 -64.34375 278.292969 -65.644531 274.003906 C -66.945312 269.71875 -68.136719 265.402344 -69.226562 261.054688 C -70.316406 256.707031 -71.296875 252.339844 -72.171875 247.945312 C -73.046875 243.550781 -73.8125 239.136719 -74.46875 234.703125 C -75.125 230.273438 -75.675781 225.828125 -76.113281 221.367188 C -76.550781 216.910156 -76.882812 212.441406 -77.101562 207.964844 C -77.320312 203.492188 -77.429688 199.011719 -77.429688 194.53125 C -77.429688 190.050781 -77.320312 185.574219 -77.101562 181.097656 C -76.882812 176.625 -76.550781 172.15625 -76.113281 167.699219 C -75.675781 163.238281 -75.125 158.792969 -74.46875 154.363281 C -73.8125 149.929688 -73.046875 145.515625 -72.171875 141.121094 C -71.296875 136.726562 -70.316406 132.355469 -69.226562 128.011719 C -68.136719 123.664062 -66.945312 119.347656 -65.644531 115.058594 C -64.34375 110.773438 -62.9375 106.519531 -61.425781 102.300781 C -59.917969 98.082031 -58.304688 93.902344 -56.589844 89.765625 C -54.875 85.625 -53.0625 81.53125 -51.144531 77.480469 C -49.230469 73.429688 -47.214844 69.425781 -45.105469 65.476562 C -42.992188 61.523438 -40.785156 57.628906 -38.480469 53.785156 C -36.175781 49.941406 -33.78125 46.15625 -31.292969 42.429688 C -28.804688 38.707031 -26.222656 35.042969 -23.554688 31.445312 C -20.886719 27.847656 -18.128906 24.316406 -15.289062 20.851562 C -12.445312 17.386719 -9.519531 13.996094 -6.511719 10.675781 C -3.5 7.355469 -0.414062 4.113281 2.753906 0.945312 C 5.921875 -2.222656 9.167969 -5.3125 12.488281 -8.320312 C 15.808594 -11.328125 19.199219 -14.253906 22.664062 -17.097656 C 26.125 -19.941406 29.65625 -22.695312 33.257812 -25.367188 C 36.855469 -28.035156 40.515625 -30.613281 44.242188 -33.101562 C 47.96875 -35.59375 51.753906 -37.988281 55.59375 -40.292969 C 59.4375 -42.59375 63.335938 -44.804688 67.285156 -46.914062 C 71.238281 -49.027344 75.238281 -51.042969 79.289062 -52.957031 C 83.339844 -54.871094 87.433594 -56.6875 91.574219 -58.402344 C 95.714844 -60.117188 99.894531 -61.730469 104.113281 -63.238281 C 108.332031 -64.746094 112.582031 -66.152344 116.871094 -67.453125 C 121.160156 -68.753906 125.476562 -69.949219 129.820312 -71.039062 C 134.167969 -72.125 138.539062 -73.109375 142.933594 -73.980469 C 147.328125 -74.855469 151.742188 -75.621094 156.171875 -76.277344 C 160.605469 -76.9375 165.050781 -77.484375 169.507812 -77.925781 C 173.96875 -78.363281 178.433594 -78.691406 182.910156 -78.914062 C 187.386719 -79.132812 191.863281 -79.242188 196.34375 -79.242188 C 200.824219 -79.242188 205.300781 -79.132812 209.777344 -78.914062 C 214.253906 -78.691406 218.71875 -78.363281 223.179688 -77.925781 C 227.636719 -77.484375 232.082031 -76.9375 236.515625 -76.277344 C 240.945312 -75.621094 245.359375 -74.855469 249.753906 -73.980469 C 254.148438 -73.109375 258.519531 -72.125 262.867188 -71.039062 C 267.210938 -69.949219 271.527344 -68.753906 275.816406 -67.453125 C 280.105469 -66.152344 284.355469 -64.746094 288.574219 -63.238281 C 292.792969 -61.730469 296.972656 -60.117188 301.113281 -58.402344 C 305.253906 -56.6875 309.347656 -54.871094 313.398438 -52.957031 C 317.449219 -51.042969 321.449219 -49.027344 325.398438 -46.914062 C 329.351562 -44.804688 333.25 -42.59375 337.09375 -40.292969 C 340.933594 -37.988281 344.71875 -35.59375 348.445312 -33.101562 C 352.171875 -30.613281 355.832031 -28.035156 359.429688 -25.367188 C 363.03125 -22.695312 366.5625 -19.941406 370.023438 -17.097656 C 373.488281 -14.253906 376.878906 -11.328125 380.199219 -8.320312 C 383.519531 -5.3125 386.765625 -2.222656 389.933594 0.945312 C 393.101562 4.113281 396.1875 7.355469 399.199219 10.675781 C 402.207031 13.996094 405.132812 17.386719 407.976562 20.851562 C 410.816406 24.316406 413.574219 27.847656 416.242188 31.445312 C 418.910156 35.042969 421.488281 38.707031 423.980469 42.429688 C 426.46875 46.15625 428.863281 49.941406 431.167969 53.785156 C 433.472656 57.628906 435.679688 61.523438 437.792969 65.476562 C 439.902344 69.425781 441.917969 73.429688 443.832031 77.480469 C 445.75 81.53125 447.5625 85.625 449.277344 89.765625 C 450.992188 93.902344 452.605469 98.082031 454.113281 102.300781 C 455.625 106.519531 457.03125 110.773438 458.332031 115.058594 C 459.628906 119.347656 460.824219 123.664062 461.914062 128.011719 C 463.003906 132.355469 463.984375 136.726562 464.859375 141.121094 C 465.734375 145.515625 466.5 149.929688 467.15625 154.363281 C 467.8125 158.792969 468.363281 163.238281 468.800781 167.699219 C 469.238281 172.15625 469.570312 176.625 469.789062 181.097656 C 470.007812 185.574219 470.117188 190.050781 470.117188 194.53125 Z M 470.117188 194.53125 " fill-opacity="1" fill-rule="nonzero"/></g><path fill="#f3cc8e" d="M 160 155.394531 L 160 140.542969 C 155.015625 139.859375 149.960938 139.449219 144.808594 139.449219 C 82.648438 139.449219 32.082031 190.011719 32.082031 252.171875 C 32.082031 290.3125 51.140625 324.054688 80.214844 344.476562 C 61.449219 324.320312 50.316406 297.339844 50.316406 267.703125 C 50.316406 206.445312 99.082031 156.804688 160 155.394531 Z M 160 155.394531 " fill-opacity="1" fill-rule="nonzero"/><path fill="#f3cc8e" d="M 162.652344 319.507812 C 190.386719 319.507812 213.335938 297.121094 214.355469 269.648438 L 214.601562 24.535156 L 259.039062 24.535156 C 259.039062 24.535156 258.964844 24.195312 258.964844 24.195312 C 258.042969 19.164062 257.53125 13.960938 257.53125 8.660156 L 196.296875 8.660156 L 196.199219 254.117188 C 195.175781 281.609375 172.542969 303.660156 144.808594 303.660156 C 136.175781 303.660156 128.082031 301.496094 120.933594 297.75 C 130.292969 310.707031 145.488281 319.53125 162.675781 319.53125 Z M 162.652344 319.507812 " fill-opacity="1" fill-rule="nonzero"/><path fill="#f3cc8e" d="M 342.761719 108.210938 L 342.761719 93.816406 C 325.648438 93.816406 309.722656 88.738281 296.355469 80.011719 C 308.242188 93.671875 324.40625 104.269531 342.761719 108.183594 Z M 342.761719 108.210938 " fill-opacity="1" fill-rule="nonzero"/><path fill="#181818" d="M 296.355469 80.035156 C 283.324219 65.058594 275.398438 45.539062 275.398438 24.171875 L 258.722656 24.171875 C 263.050781 47.507812 277.171875 67.539062 296.355469 80.035156 Z M 296.355469 80.035156 " fill-opacity="1" fill-rule="nonzero"/><path fill="#181818" d="M 144.808594 200.195312 C 116.414062 200.195312 92.980469 223.753906 92.980469 252.148438 C 92.980469 271.910156 104.527344 289.097656 120.910156 297.726562 C 114.808594 289.269531 111.164062 278.910156 111.164062 267.703125 C 111.164062 239.3125 134.257812 216.21875 162.652344 216.21875 C 167.949219 216.21875 173.03125 217.09375 177.84375 218.597656 L 177.84375 156.074219 C 172.859375 155.394531 167.804688 154.980469 162.652344 154.980469 C 161.75 154.980469 160.875 155.03125 160 155.054688 L 159.757812 155.054688 C 159.757812 155.054688 159.585938 202.386719 159.585938 202.386719 C 154.773438 200.878906 150.105469 200.222656 144.808594 200.222656 Z M 144.808594 200.195312 " fill-opacity="1" fill-rule="nonzero"/><g clip-path="url(#324f154955)"><path fill="#181818" d="M 342.761719 107.480469 L 342.46875 107.429688 L 342.46875 154.714844 C 310.695312 154.714844 281.183594 144.261719 257.167969 127.023438 L 257.167969 252.148438 C 257.167969 314.304688 206.96875 364.554688 144.808594 364.554688 C 120.789062 364.554688 98.523438 357.285156 80.191406 344.425781 C 100.78125 366.523438 130.125 380.40625 162.652344 380.40625 C 224.808594 380.40625 275.375 329.839844 275.375 267.679688 L 275.375 143.214844 C 299.390625 160.449219 328.832031 170.613281 360.578125 170.613281 L 360.578125 109.375 C 354.453125 109.375 348.496094 108.71875 342.738281 107.480469 Z M 342.761719 107.480469 " fill-opacity="1" fill-rule="nonzero"/></g><path fill="#f3cc8e" d="M 257.53125 252.148438 L 257.53125 127.679688 C 281.550781 144.917969 310.988281 155.078125 342.738281 155.078125 L 342.738281 107.480469 C 324.382812 103.542969 308.242188 93.695312 296.328125 80.035156 C 277.148438 67.515625 263.292969 47.507812 258.964844 24.171875 L 214.113281 24.171875 L 214.015625 269.625 C 212.996094 297.121094 190.363281 319.167969 162.625 319.167969 C 145.4375 319.167969 130.246094 310.683594 120.886719 297.703125 C 104.5 289.074219 93.296875 271.910156 93.296875 252.121094 C 93.296875 223.730469 116.390625 200.632812 144.78125 200.632812 C 150.082031 200.632812 155.164062 201.511719 159.976562 203.015625 L 159.976562 155.003906 C 99.03125 156.441406 49.902344 206.394531 49.902344 267.679688 C 49.902344 297.3125 61.425781 324.296875 80.167969 344.449219 C 98.472656 357.308594 120.742188 364.871094 144.78125 364.871094 C 206.941406 364.871094 257.507812 314.304688 257.507812 252.148438 Z M 257.53125 252.148438 " fill-opacity="1" fill-rule="nonzero"/></svg>