<svg xmlns="http://www.w3.org/2000/svg" xmlns:xlink="http://www.w3.org/1999/xlink" width="500" zoomAndPan="magnify" viewBox="0 0 375 374.999991" height="500" preserveAspectRatio="xMidYMid meet" version="1.0"><rect x="-37.5" width="450" fill="#ffffff" y="-37.499999" height="449.999989" fill-opacity="1"/><rect x="-37.5" width="450" fill="#212121" y="-37.499999" height="449.999989" fill-opacity="1"/><path fill="#f3cc8e" d="M 202.640625 61.292969 C 194.183594 61.292969 187.328125 68.148438 187.328125 76.605469 C 187.328125 85.058594 194.183594 91.917969 202.640625 91.917969 C 222.128906 91.917969 237.179688 98.34375 247.320312 108.484375 C 257.460938 118.625 263.890625 133.675781 263.890625 153.167969 C 263.890625 161.625 270.746094 168.480469 279.203125 168.480469 C 287.660156 168.480469 294.515625 161.625 294.515625 153.167969 C 294.515625 126.71875 285.632812 103.488281 268.976562 86.832031 C 252.320312 70.175781 229.089844 61.292969 202.640625 61.292969 Z M 202.640625 61.292969 " fill-opacity="1" fill-rule="nonzero"/><path fill="#f3cc8e" d="M 80.355469 122.636719 C 82.105469 108.796875 100.089844 89.988281 114.363281 92.074219 L 114.339844 92.054688 C 126.269531 94.320312 136.0625 112.277344 142.519531 124.109375 C 143.578125 126.054688 144.550781 127.832031 145.425781 129.351562 C 149.820312 137.148438 146.964844 145.050781 142.867188 148.386719 C 142.394531 148.769531 141.898438 149.164062 141.386719 149.566406 C 135.9375 153.898438 128.851562 159.519531 130.511719 165.160156 C 133.734375 176.136719 172.015625 214.417969 190.84375 225.296875 C 196.609375 228.628906 201.089844 222.160156 204.929688 216.617188 C 205.835938 215.308594 206.707031 214.050781 207.550781 212.988281 C 210.757812 208.707031 218.667969 206.148438 226.449219 210.375 C 238.070312 217.140625 249.019531 225.007812 259.144531 233.863281 C 264.199219 238.089844 265.386719 244.335938 261.882812 250.9375 C 255.710938 262.5625 237.863281 277.894531 224.90625 274.78125 C 202.277344 269.339844 110.765625 233.863281 81.371094 131.085938 C 79.832031 126.558594 80.085938 124.652344 80.308594 123 Z M 80.355469 122.636719 " fill-opacity="1" fill-rule="nonzero"/><path fill="#f3cc8e" d="M 202.640625 107.230469 C 194.183594 107.230469 187.328125 114.085938 187.328125 122.542969 C 187.328125 130.996094 194.183594 137.855469 202.640625 137.855469 C 205.316406 137.855469 209.273438 139.347656 212.867188 142.9375 C 216.460938 146.53125 217.953125 150.488281 217.953125 153.167969 C 217.953125 161.625 224.808594 168.480469 233.265625 168.480469 C 241.722656 168.480469 248.578125 161.625 248.578125 153.167969 C 248.578125 140.53125 242.414062 129.175781 234.523438 121.285156 C 226.632812 113.394531 215.277344 107.230469 202.640625 107.230469 Z M 202.640625 107.230469 " fill-opacity="1" fill-rule="nonzero"/><path fill="#f3cc8e" d="M 118.6875 364.957031 C 119.125 365.195312 119.570312 365.414062 120.027344 365.613281 C 128.339844 369.1875 138.597656 361.207031 159.113281 345.25 L 179.671875 329.261719 C 220.839844 330.621094 256.449219 325.21875 283.980469 315.585938 C 314.769531 304.8125 338.976562 280.605469 349.75 249.816406 C 364.597656 207.386719 364.597656 129.566406 349.75 87.136719 C 338.976562 56.347656 314.769531 32.140625 283.980469 21.367188 C 234.953125 4.210938 138.789062 4.53125 90.675781 21.367188 C 59.886719 32.140625 35.679688 56.347656 24.90625 87.136719 C 10.058594 129.566406 10.058594 207.386719 24.90625 249.816406 C 35.679688 280.605469 59.886719 304.8125 90.675781 315.585938 C 96.714844 317.699219 103.472656 320.019531 110.765625 321.605469 C 110.765625 347.59375 110.765625 360.589844 118.6875 364.957031 Z M 141.390625 320.234375 L 141.390625 303.089844 C 141.390625 299.488281 138.878906 296.375 135.355469 295.621094 C 123.691406 293.128906 112.09375 290.636719 100.792969 286.679688 C 78.800781 278.984375 61.507812 261.695312 53.8125 239.703125 C 47.964844 222.988281 44.394531 196.734375 44.394531 168.476562 C 44.394531 140.21875 47.964844 113.964844 53.8125 97.253906 C 61.507812 75.261719 78.800781 57.96875 100.792969 50.273438 C 120.203125 43.480469 152.371094 39.285156 187.019531 39.246094 C 221.660156 39.207031 254.03125 43.332031 273.863281 50.273438 C 295.855469 57.96875 313.148438 75.261719 320.84375 97.253906 C 326.691406 113.964844 330.261719 140.21875 330.261719 168.476562 C 330.261719 196.734375 326.691406 222.988281 320.84375 239.703125 C 313.148438 261.695312 295.855469 278.984375 273.863281 286.679688 C 241.222656 298.101562 206.605469 299.386719 172.382812 298.371094 C 170.59375 298.320312 168.839844 298.886719 167.429688 299.984375 Z M 141.390625 320.234375 " fill-opacity="1" fill-rule="evenodd"/></svg>