<svg xmlns="http://www.w3.org/2000/svg" xmlns:xlink="http://www.w3.org/1999/xlink" width="500" zoomAndPan="magnify" viewBox="0 0 375 374.999991" height="500" preserveAspectRatio="xMidYMid meet" version="1.0"><rect x="-37.5" width="450" fill="#ffffff" y="-37.499999" height="449.999989" fill-opacity="1"/><rect x="-37.5" width="450" fill="#181818" y="-37.499999" height="449.999989" fill-opacity="1"/><path fill="#f3cc8e" d="M 202.5 67.5 C 194.214844 67.5 187.5 74.214844 187.5 82.5 C 187.5 90.785156 194.214844 97.5 202.5 97.5 C 221.59375 97.5 236.335938 103.796875 246.269531 113.730469 C 256.203125 123.664062 262.5 138.410156 262.5 157.5 C 262.5 165.785156 269.214844 172.5 277.5 172.5 C 285.785156 172.5 292.5 165.785156 292.5 157.5 C 292.5 131.589844 283.796875 108.835938 267.480469 92.519531 C 251.164062 76.203125 228.40625 67.5 202.5 67.5 Z M 202.5 67.5 " fill-opacity="1" fill-rule="nonzero"/><path fill="#f3cc8e" d="M 82.710938 127.59375 C 84.425781 114.035156 102.042969 95.613281 116.023438 97.65625 L 116 97.632812 C 127.6875 99.855469 137.28125 117.445312 143.605469 129.035156 C 144.644531 130.941406 145.59375 132.683594 146.453125 134.167969 C 150.757812 141.808594 147.960938 149.550781 143.949219 152.816406 C 143.484375 153.191406 142.996094 153.578125 142.496094 153.976562 C 137.15625 158.214844 130.21875 163.722656 131.839844 169.25 C 135 180 172.5 217.5 190.945312 228.160156 C 196.589844 231.425781 200.980469 225.085938 204.742188 219.65625 C 205.628906 218.375 206.484375 217.144531 207.308594 216.101562 C 210.453125 211.90625 218.199219 209.398438 225.820312 213.539062 C 237.207031 220.171875 247.933594 227.875 257.851562 236.550781 C 262.804688 240.691406 263.964844 246.808594 260.535156 253.273438 C 254.488281 264.664062 237.003906 279.683594 224.3125 276.632812 C 202.144531 271.300781 112.5 236.550781 83.703125 135.871094 C 82.195312 131.433594 82.445312 129.570312 82.664062 127.949219 Z M 82.710938 127.59375 " fill-opacity="1" fill-rule="nonzero"/><path fill="#f3cc8e" d="M 202.5 112.5 C 194.214844 112.5 187.5 119.214844 187.5 127.5 C 187.5 135.785156 194.214844 142.5 202.5 142.5 C 205.121094 142.5 208.996094 143.960938 212.519531 147.480469 C 216.039062 151 217.5 154.878906 217.5 157.5 C 217.5 165.785156 224.214844 172.5 232.5 172.5 C 240.785156 172.5 247.5 165.785156 247.5 157.5 C 247.5 145.121094 241.460938 134 233.730469 126.269531 C 226.003906 118.539062 214.878906 112.5 202.5 112.5 Z M 202.5 112.5 " fill-opacity="1" fill-rule="nonzero"/><path fill="#f3cc8e" d="M 120.261719 364.96875 C 120.6875 365.203125 121.125 365.417969 121.574219 365.609375 C 129.714844 369.109375 139.761719 361.292969 159.859375 345.664062 L 180 330 C 220.324219 331.335938 255.210938 326.042969 282.179688 316.605469 C 312.339844 306.050781 336.054688 282.339844 346.609375 252.179688 C 361.152344 210.613281 361.152344 134.382812 346.609375 92.820312 C 336.054688 62.660156 312.339844 38.945312 282.179688 28.390625 C 234.15625 11.585938 139.949219 11.898438 92.820312 28.390625 C 62.660156 38.945312 38.945312 62.660156 28.390625 92.820312 C 13.847656 134.382812 13.847656 210.613281 28.390625 252.179688 C 38.945312 282.339844 62.660156 306.050781 92.820312 316.605469 C 98.738281 318.675781 105.355469 320.949219 112.5 322.5 C 112.5 347.960938 112.5 360.691406 120.261719 364.96875 Z M 142.5 321.160156 L 142.5 304.363281 C 142.5 300.835938 140.039062 297.785156 136.589844 297.046875 C 125.160156 294.605469 113.800781 292.164062 102.730469 288.289062 C 81.1875 280.753906 64.246094 263.8125 56.710938 242.269531 C 50.980469 225.898438 47.484375 200.179688 47.484375 172.5 C 47.484375 144.816406 50.980469 119.097656 56.710938 102.726562 C 64.246094 81.183594 81.1875 64.246094 102.730469 56.707031 C 121.742188 50.054688 153.257812 45.941406 187.195312 45.90625 C 221.132812 45.867188 252.839844 49.910156 272.269531 56.707031 C 293.8125 64.246094 310.753906 81.183594 318.289062 102.726562 C 324.019531 119.097656 327.515625 144.816406 327.515625 172.5 C 327.515625 200.179688 324.019531 225.898438 318.289062 242.269531 C 310.753906 263.8125 293.8125 280.753906 272.269531 288.289062 C 240.296875 299.476562 206.386719 300.734375 172.859375 299.742188 C 171.105469 299.691406 169.390625 300.246094 168.007812 301.324219 Z M 142.5 321.160156 " fill-opacity="1" fill-rule="evenodd"/></svg>