<svg xmlns="http://www.w3.org/2000/svg" xmlns:xlink="http://www.w3.org/1999/xlink" width="500" zoomAndPan="magnify" viewBox="0 0 375 374.999991" height="500" preserveAspectRatio="xMidYMid meet" version="1.0"><defs><clipPath id="222eb65398"><path d="M 7.5 6.511719 L 365.25 6.511719 L 365.25 366.511719 L 7.5 366.511719 Z M 7.5 6.511719 " clip-rule="nonzero"/></clipPath></defs><rect x="-37.5" width="450" fill="#ffffff" y="-37.499999" height="449.999989" fill-opacity="1"/><rect x="-37.5" width="450" fill="#212121" y="-37.499999" height="449.999989" fill-opacity="1"/><g clip-path="url(#222eb65398)"><path fill="#f3cc8e" d="M 313.328125 58.96875 C 279.679688 25.28125 234.929688 6.695312 187.246094 6.695312 C 88.996094 6.695312 9.03125 86.644531 8.992188 184.929688 C 8.992188 216.339844 17.191406 247.019531 32.792969 274.039062 L 7.5 366.398438 L 101.996094 341.605469 C 128.035156 355.816406 157.347656 363.289062 187.171875 363.304688 L 187.246094 363.304688 C 285.476562 363.304688 365.460938 283.339844 365.476562 185.070312 C 365.476562 137.441406 346.980469 92.675781 313.3125 58.96875 Z M 187.246094 333.210938 L 187.191406 333.210938 C 160.621094 333.210938 134.527344 326.0625 111.777344 312.5625 L 106.371094 309.34375 L 50.292969 324.050781 L 65.25 269.378906 L 61.730469 263.773438 C 46.894531 240.191406 39.070312 212.925781 39.085938 184.929688 C 39.125 103.257812 105.589844 36.789062 187.296875 36.789062 C 226.871094 36.789062 264.0625 52.230469 292.039062 80.242188 C 320.015625 108.238281 335.402344 145.460938 335.382812 185.054688 C 335.347656 266.746094 268.882812 333.210938 187.226562 333.210938 Z M 268.507812 222.261719 C 264.0625 220.039062 242.167969 209.261719 238.078125 207.785156 C 233.984375 206.289062 231.035156 205.5625 228.0625 210.007812 C 225.09375 214.472656 216.554688 224.503906 213.960938 227.472656 C 211.363281 230.445312 208.765625 230.816406 204.300781 228.578125 C 199.855469 226.351562 185.5 221.640625 168.480469 206.46875 C 155.246094 194.660156 146.300781 180.074219 143.703125 175.609375 C 141.109375 171.144531 143.4375 168.746094 145.660156 166.519531 C 147.652344 164.53125 150.109375 161.308594 152.347656 158.714844 C 154.570312 156.117188 155.320312 154.25 156.796875 151.277344 C 158.289062 148.308594 157.542969 145.710938 156.421875 143.472656 C 155.300781 141.246094 146.410156 119.316406 142.691406 110.40625 C 139.082031 101.726562 135.398438 102.902344 132.675781 102.757812 C 130.082031 102.632812 127.109375 102.597656 124.140625 102.597656 C 121.171875 102.597656 116.351562 103.703125 112.257812 108.164062 C 108.167969 112.628906 96.679688 123.410156 96.679688 145.320312 C 96.679688 167.234375 112.632812 188.414062 114.875 191.402344 C 117.097656 194.375 146.285156 239.355469 190.960938 258.652344 C 201.582031 263.242188 209.886719 265.980469 216.359375 268.042969 C 227.03125 271.441406 236.742188 270.960938 244.410156 269.804688 C 252.964844 268.523438 270.75 259.027344 274.46875 248.621094 C 278.183594 238.214844 278.183594 229.304688 277.0625 227.4375 C 275.945312 225.570312 272.972656 224.46875 268.527344 222.226562 Z M 268.507812 222.261719 " fill-opacity="1" fill-rule="evenodd"/></g></svg>