<svg xmlns="http://www.w3.org/2000/svg" xmlns:xlink="http://www.w3.org/1999/xlink" width="500" zoomAndPan="magnify" viewBox="0 0 375 374.999991" height="500" preserveAspectRatio="xMidYMid meet" version="1.0"><defs><clipPath id="815eb99ef2"><path d="M 11.101562 7.5 L 363.601562 7.5 L 363.601562 367.5 L 11.101562 367.5 Z M 11.101562 7.5 " clip-rule="nonzero"/></clipPath></defs><rect x="-37.5" width="450" fill="#ffffff" y="-37.499999" height="449.999989" fill-opacity="1"/><rect x="-37.5" width="450" fill="#181818" y="-37.499999" height="449.999989" fill-opacity="1"/><g clip-path="url(#815eb99ef2)"><path fill="#f3cc8e" d="M 221.039062 159.964844 L 352.199219 7.5 L 321.117188 7.5 L 207.234375 139.875 L 116.269531 7.5 L 11.359375 7.5 L 148.914062 207.695312 L 11.359375 367.570312 L 42.441406 367.570312 L 162.71875 227.765625 L 258.777344 367.570312 L 363.6875 367.570312 Z M 178.46875 209.453125 L 164.527344 189.519531 L 53.648438 30.890625 L 101.394531 30.890625 L 190.886719 158.894531 L 204.828125 178.824219 L 321.152344 345.214844 L 273.40625 345.214844 L 178.46875 209.433594 Z M 178.46875 209.453125 " fill-opacity="1" fill-rule="nonzero"/></g></svg>