<svg xmlns="http://www.w3.org/2000/svg" xmlns:xlink="http://www.w3.org/1999/xlink" width="500" zoomAndPan="magnify" viewBox="0 0 375 374.999991" height="500" preserveAspectRatio="xMidYMid meet" version="1.0"><defs><clipPath id="622ba1f826"><path d="M 7.5 3.828125 L 367.5 3.828125 L 367.5 371.328125 L 7.5 371.328125 Z M 7.5 3.828125 " clip-rule="nonzero"/></clipPath></defs><rect x="-37.5" width="450" fill="#ffffff" y="-37.499999" height="449.999989" fill-opacity="1"/><rect x="-37.5" width="450" fill="#212121" y="-37.499999" height="449.999989" fill-opacity="1"/><g clip-path="url(#622ba1f826)"><path fill="#f3cc8e" d="M 221.726562 159.398438 L 355.5625 3.828125 L 323.84375 3.828125 L 207.640625 138.898438 L 114.820312 3.828125 L 7.773438 3.828125 L 148.132812 208.101562 L 7.773438 371.234375 L 39.492188 371.234375 L 162.214844 228.582031 L 260.234375 371.234375 L 367.28125 371.234375 Z M 178.289062 209.894531 L 164.0625 189.554688 L 50.921875 27.695312 L 99.644531 27.695312 L 190.957031 158.304688 L 205.1875 178.640625 L 323.878906 348.421875 L 275.160156 348.421875 L 178.289062 209.875 Z M 178.289062 209.894531 " fill-opacity="1" fill-rule="nonzero"/></g></svg>